<?xml version="1.0" encoding="UTF-8" standalone="no"?>
<svg
   xmlns:dc="http://purl.org/dc/elements/1.1/"
   xmlns:cc="http://creativecommons.org/ns#"
   xmlns:rdf="http://www.w3.org/1999/02/22-rdf-syntax-ns#"
   xmlns:svg="http://www.w3.org/2000/svg"
   xmlns="http://www.w3.org/2000/svg"
   xmlns:sodipodi="http://sodipodi.sourceforge.net/DTD/sodipodi-0.dtd"
   xmlns:inkscape="http://www.inkscape.org/namespaces/inkscape"
   viewBox="0 0 228.43 31.72"
   version="1.1"
   id="svg20"
   sodipodi:docname="Soaflow_no_circle_newgreen.svg"
   inkscape:version="1.0.1 (3bc2e813f5, 2020-09-07)">
  <metadata
     id="metadata24">
    <rdf:RDF>
      <cc:Work
         rdf:about="">
        <dc:format>image/svg+xml</dc:format>
        <dc:type
           rdf:resource="http://purl.org/dc/dcmitype/StillImage" />
        <dc:title></dc:title>
      </cc:Work>
    </rdf:RDF>
  </metadata>
  <sodipodi:namedview
     pagecolor="#ffffff"
     bordercolor="#666666"
     borderopacity="1"
     objecttolerance="10"
     gridtolerance="10"
     guidetolerance="10"
     inkscape:pageopacity="0"
     inkscape:pageshadow="2"
     inkscape:window-width="1920"
     inkscape:window-height="1002"
     id="namedview22"
     showgrid="false"
     inkscape:zoom="3.5536427"
     inkscape:cx="80.988801"
     inkscape:cy="-2.9507356"
     inkscape:window-x="-8"
     inkscape:window-y="-8"
     inkscape:window-maximized="1"
     inkscape:current-layer="svg20" />
  <defs
     id="defs4">
    <style
       id="style2">.cls-1,.cls-2{fill:#0f6;}.cls-1{fill-opacity:0;}.cls-3{font-size:32.79px;fill:#2d2d2d;font-family:HeliosRounded, Helios Rounded;letter-spacing:0.05em;}</style>
  </defs>
  <g
     id="g105">
    <g
       id="g93">
      <path
         id="path287"
         class="cls-1"
         d="m 15.19,11.19 9.88,7 V 29.8 H 10.84 A 10.84,10.84 0 0 1 0,19 v 0 -0.28 a 9.61,9.61 0 0 1 15.19,-7.48 z" />
      <path
         id="path289"
         class="cls-2"
         d="m 9.63,9.4 v 1.79 a 7.76,7.76 0 0 1 4.52,1.46 l 9.13,6.48 V 28 H 10.84 a 9.07,9.07 0 0 1 -9,-9.06 V 18.71 A 7.56,7.56 0 0 1 4.3,13.28 8,8 0 0 1 9.68,11.18 V 9.4 m 0,0 A 9.55,9.55 0 0 0 0,18.67 V 19 19 A 10.84,10.84 0 0 0 10.84,29.8 H 25.07 V 18.2 l -9.88,-7 A 9.57,9.57 0 0 0 9.63,9.4 Z"
         style="fill:#0cda90;fill-opacity:1" />
      <path
         id="path291"
         class="cls-2"
         d="m 25.07,29.8 v 0 a 14,14 0 0 1 -14,-14 V 0 0 a 14,14 0 0 1 14,14 z"
         style="fill:#0cda90;fill-opacity:1" />
      <path
         id="path293"
         class="cls-2"
         d="m 35.29,29.8 v 0 a 8.93,8.93 0 0 1 -8.93,-8.94 v -10 0 a 8.93,8.93 0 0 1 8.93,8.93 z"
         style="fill:#0cda90;fill-opacity:1" />
      <path
         id="path295"
         class="cls-2"
         d="m 42.35,29.8 v 0 A 5.78,5.78 0 0 1 36.58,24 v -6.47 0 a 5.77,5.77 0 0 1 5.77,5.77 z"
         style="fill:#0cda90;fill-opacity:1" />
      <path
         id="path297"
         class="cls-2"
         d="m 46.79,29.8 v 0 a 3.15,3.15 0 0 1 -3.15,-3.15 v -3.54 0 a 3.15,3.15 0 0 1 3.15,3.15 z"
         style="fill:#0cda90;fill-opacity:1" />
      <path
         id="path289-8"
         class="cls-2"
         d="m 9.87,10.71 v 1.56 a 6.77,6.77 0 0 1 3.93,1.27 l 8,5.65 v 7.73 H 10.92 A 7.9,7.9 0 0 1 3,19 v -0.2 a 6.6,6.6 0 0 1 2.17,-4.7 7,7 0 0 1 4.7,-1.83 v -1.56 m 0,0 a 8.32,8.32 0 0 0 -8.39,8.08 1.93,1.93 0 0 0 0,0.24 v 0 a 9.45,9.45 0 0 0 9.45,9.45 h 12.4 V 18.38 L 14.72,12.27 A 8.36,8.36 0 0 0 9.88,10.71 Z"
         style="fill:#0cda90;fill-opacity:1" />
      <path
         id="path289-8-8"
         class="cls-2"
         d="m 9.83,11.72 v 1.38 a 6.1,6.1 0 0 1 3.53,1.13 l 7.15,5 v 6.86 h -9.73 a 7,7 0 0 1 -7.08,-7 v -0.18 a 5.78,5.78 0 0 1 1.92,-4.2 6.35,6.35 0 0 1 4.21,-1.61 v -1.38 m 0,0 A 7.43,7.43 0 0 0 2.3,18.88 v 0.22 0 a 8.42,8.42 0 0 0 8.48,8.37 H 21.91 V 18.52 L 14.18,13.1 A 7.54,7.54 0 0 0 9.83,11.72 Z"
         style="fill:#0cda90;fill-opacity:1" />
      <text
         class="cls-3"
         id="text16"
         x="54.389999"
         y="28.01">SOaFLOW</text>
    </g>
  </g>
  <g
     id="Group_27"
     data-name="Group 27"
     transform="translate(-45.576851,-76.91982)">
    <path
       id="Path_42"
       data-name="Path 42"
       d="M 1.288,0 H 5.8 V -12.9 H 1.288 Z m 2.277,-14.1 a 2.383,2.383 0 0 0 2.622,-2.3 2.4,2.4 0 0 0 -2.622,-2.346 2.411,2.411 0 0 0 -2.645,2.346 2.391,2.391 0 0 0 2.645,2.3 z m 16.974,9.178 c 0,-5.2 -7.8,-4.416 -7.8,-6.831 a 1.075,1.075 0 0 1 1.2,-1.15 1.391,1.391 0 0 1 1.5,1.472 h 4.9 c -0.161,-3.22 -2.6,-5.037 -6.325,-5.037 -3.427,0 -6.072,1.7 -6.072,4.876 -0.069,5.635 7.8,4.416 7.82,7.015 0,0.759 -0.621,1.173 -1.426,1.173 A 1.535,1.535 0 0 1 12.7,-5.037 H 7.889 c 0.184,3.473 2.99,5.2 6.6,5.2 3.842,-0.002 6.05,-2.233 6.05,-5.085 z m 18.17,-3.243 a 8.1,8.1 0 0 0 -8.3,-8.3 8.134,8.134 0 0 0 -8.326,8.3 8.153,8.153 0 0 0 8.323,8.326 8.134,8.134 0 0 0 8.303,-8.326 z m -12.029,0 c 0,-2.553 1.38,-4.163 3.726,-4.163 2.323,0 3.726,1.61 3.726,4.163 0,2.507 -1.4,4.14 -3.726,4.14 -2.346,0 -3.726,-1.633 -3.726,-4.14 z"
       transform="translate(173,57)"
       fill="#2c2c2c" />
    <path
       id="Path_41"
       data-name="Path 41"
       d="m 23.091,20.071 a 3.051,3.051 0 0 0 -1.685,0.507 l -4.621,-4.643 a 0.611,0.611 0 0 0 -0.128,-0.1 4.479,4.479 0 0 0 -0.844,-6.265 l 1.9,-3.344 a 3.18,3.18 0 1 0 -1.067,-0.6 l -1.9,3.34 A 4.474,4.474 0 0 0 10.375,9.552 C 10.366,9.541 10.358,9.529 10.348,9.519 L 7.746,6.9 A 2.042,2.042 0 1 0 6.891,7.779 l 2.59,2.6 c 0.01,0.01 0.022,0.018 0.033,0.027 a 4.473,4.473 0 0 0 -0.2,5.159 L 5.035,19.28 a 3.175,3.175 0 1 0 0.829,0.9 l 4.253,-3.68 a 4.475,4.475 0 0 0 5.707,0.181 0.6,0.6 0 0 0 0.092,0.121 l 4.621,4.643 a 3.067,3.067 0 1 0 2.555,-1.372 z"
       transform="translate(140.92,35.946)"
       fill="#0cda90" />
  </g>
</svg>
